<svg id="Layer_1" data-name="Layer 1" xmlns="http://www.w3.org/2000/svg" viewBox="0 0 450 450"><defs><style>.cls-1{fill:#ffc861;}.cls-2{fill:#b17f4a;}.cls-3{fill:#ffe8cc;}.cls-4{fill:#fff2de;stroke:#ffe8cc;stroke-linecap:round;stroke-linejoin:round;stroke-width:5px;}.cls-5{fill:#e3a93d;}</style></defs><path class="cls-1" d="M152.67,288.15l14.14,107.62h.08c.44,23.43,24.26,33.5,67.45,33.5s67-10.07,67.45-33.5h.08L316,288.14H152.67Z"/><path class="cls-2" d="M153.06,290.27s19.52,14.18,81.63,14.18,80.92-14.18,80.92-14.18Z"/><path class="cls-1" d="M129.25,224.67l6.18,49.92h.1c.58,17.17,42,24.58,98.81,24.58s98.23-7.4,98.8-24.58h.11l6.18-49.92Z"/><path class="cls-2" d="M133,254.85S155.73,277,234.34,277s102.07-26.72,102.07-26.72Z"/><path class="cls-3" d="M156.05,82.27c-49.9,0-100.06,81.23-38.76,144.15C117.29,268,174.44,268,235.54,268,319.76,268,347,243.83,347,243.83h0a15.4,15.4,0,0,0-4-20.12Z"/><path class="cls-4" d="M339.35,184.28c5.47-12.42,11.9-40.06-1.39-59.75-17.1-25.37-39.51-30.91-59.43-44.75-10.83-7.52-29.72-28.2-3.65-46.4,0,0-55.12-35.85-98.17,13.13a102.63,102.63,0,0,0-22.43,41.77c-78.57,24.19-67,167.85,48.73,139.3-94.56-2.71-82.21-95.3-50-134.19-3.61,17.25-1.52,29.63-1.52,29.63-14.11,35.43-.88,78.34,31.36,95.85a128,128,0,0,0,20.06,8.51l.07.2s-44.2,21.46-78.75,3.22h0c22.21,33,61.2,13,81.81,13.44,22.49.43,15.55,20.48,66.6,8.11,29.16-7.08,42.73-12.8,59-11.53,14.58,1.14,27.86-9.2,29.16-23.78C361.82,206.64,357.32,194.73,339.35,184.28Z"/><path class="cls-3" d="M274.88,33.38c-122.73-30.83-140.63,115.23-61.67,145,13.49,2.53,26.62,1.83,39.54.23-80.08-16.65-83.84-135.72-8.58-141.9-66,39-27.32,137.2,46.66,137.2-61.27-36.74-71.09-104.34-32.72-130.22-38.72,86.23,58.41,74,81.27,141.77C353.16,95.63,233.79,121.92,274.88,33.38Z"/><path class="cls-3" d="M151.72,124.53c8.71,35.73,43.56,64.51,83.82,64.51,43.88,0,79.49-16.32,113.59,29.83-46-23.23-72-8.24-115.23-8.24C182.77,210.63,142.15,169.16,151.72,124.53Z"/><polygon class="cls-5" points="161.31 308.07 179.6 314.94 180.65 327.18 163.16 324.34 186.49 330.37 185.25 314.25 161.31 308.07"/><polygon class="cls-5" points="191.56 315.47 210 319.98 210.46 332.12 192.65 331.54 216.27 334.56 215.8 318.56 191.56 315.47"/><polygon class="cls-5" points="222.16 318.96 240.6 321.12 240.48 333.24 222.48 334.95 246.21 334.95 246.51 318.96 222.16 318.96"/><polygon class="cls-5" points="252.88 318.56 271.15 318.39 270.44 330.56 252.41 334.56 276.04 331.54 277.12 315.47 252.88 318.56"/><polygon class="cls-5" points="283.43 314.25 301.39 311.76 300.1 324.06 282.19 330.37 305.52 324.34 307.36 308.07 283.43 314.25"/><polygon class="cls-5" points="163.56 327.88 181.29 334.61 182.34 346.83 165.4 344.13 188 349.98 186.76 333.88 163.56 327.88"/><polygon class="cls-5" points="192.88 335.05 210.75 339.49 211.22 351.61 193.96 351.12 216.84 354.04 216.37 338.05 192.88 335.05"/><polygon class="cls-5" points="222.55 338.44 240.41 340.6 240.29 352.71 222.85 354.42 245.83 354.42 246.14 338.44 222.55 338.44"/><polygon class="cls-5" points="252.31 338.05 270.01 337.94 269.31 350.1 251.84 354.04 274.72 351.12 275.8 335.05 252.31 338.05"/><polygon class="cls-5" points="281.92 333.88 299.32 331.52 298.04 343.81 280.68 349.98 303.28 344.13 305.13 327.88 281.92 333.88"/><polygon class="cls-5" points="165.8 347.69 182.97 354.23 184.02 366.49 167.65 363.94 189.51 369.59 188.28 353.51 165.8 347.69"/><polygon class="cls-5" points="194.2 354.64 211.49 358.96 211.97 371.13 195.27 370.7 217.41 373.53 216.95 357.55 194.2 354.64"/><polygon class="cls-5" points="222.92 357.93 240.22 360.05 240.1 372.18 223.22 373.91 245.46 373.91 245.76 357.93 222.92 357.93"/><polygon class="cls-5" points="251.73 357.55 268.89 357.47 268.17 369.66 251.27 373.53 273.4 370.7 274.48 354.64 251.73 357.55"/><polygon class="cls-5" points="280.4 353.51 297.25 351.25 295.96 363.57 279.17 369.59 301.04 363.94 302.88 347.69 280.4 353.51"/><polygon class="cls-5" points="168.05 367.5 184.66 373.91 185.72 386.14 169.89 383.77 191.02 389.23 189.78 373.12 168.05 367.5"/><polygon class="cls-5" points="195.51 374.21 212.25 378.48 212.71 390.61 196.59 390.3 217.98 393.03 217.51 377.02 195.51 374.21"/><polygon class="cls-5" points="223.29 377.39 240.02 379.52 239.91 391.63 223.59 393.38 245.09 393.38 245.39 377.39 223.29 377.39"/><polygon class="cls-5" points="251.16 377.02 267.74 377.04 267.04 389.19 250.7 393.03 272.09 390.3 273.17 374.21 251.16 377.02"/><polygon class="cls-5" points="278.9 373.12 295.19 371.02 293.9 383.31 277.67 389.23 298.8 383.77 300.63 367.5 278.9 373.12"/><polygon class="cls-5" points="170.28 387.3 186.35 393.57 187.4 405.8 172.13 403.56 192.53 408.82 191.29 392.72 170.28 387.3"/><polygon class="cls-5" points="196.82 393.79 213 397.98 213.47 410.12 197.91 409.86 218.55 412.5 218.08 396.49 196.82 393.79"/><polygon class="cls-5" points="223.67 396.85 239.82 398.99 239.71 411.1 223.97 412.85 244.71 412.85 245.01 396.85 223.67 396.85"/><polygon class="cls-5" points="250.6 396.49 266.61 396.59 265.9 408.75 250.12 412.5 270.77 409.86 271.85 393.79 250.6 396.49"/><polygon class="cls-5" points="277.39 392.72 293.13 390.79 291.84 403.07 276.15 408.82 296.55 403.56 298.39 387.3 277.39 392.72"/></svg>