<svg id="Layer_1" data-name="Layer 1" xmlns="http://www.w3.org/2000/svg" viewBox="0 0 50 50"><defs><style>.cls-1{fill:#fff;fill-rule:evenodd;}</style></defs><title>github-icon</title><path class="cls-1" d="M25,.62a25,25,0,0,0-7.9,48.72c1.25.23,1.7-.54,1.7-1.21s0-2.16,0-4.25c-6.95,1.51-8.42-3.35-8.42-3.35-1.14-2.89-2.78-3.66-2.78-3.66-2.27-1.55.17-1.52.17-1.52a5.26,5.26,0,0,1,3.83,2.58c2.23,3.82,5.86,2.72,7.28,2.08a5.3,5.3,0,0,1,1.59-3.34C14.89,36,9.05,33.89,9.05,24.31a9.66,9.66,0,0,1,2.57-6.71A9,9,0,0,1,11.87,11s2.1-.68,6.87,2.56a23.75,23.75,0,0,1,12.52,0C36,10.31,38.13,11,38.13,11a9,9,0,0,1,.25,6.61A9.66,9.66,0,0,1,41,24.31C41,33.91,35.1,36,29.53,36.65a5.94,5.94,0,0,1,1.7,4.63c0,3.34,0,6,0,6.85,0,.67.45,1.45,1.72,1.21A25,25,0,0,0,25,.62Z"/></svg>